<svg width="830" height="362" viewBox="0 0 830 362" fill="none" xmlns="http://www.w3.org/2000/svg">
<g clip-path="url(#clip0_1_31858)">
<path d="M11.7437 329.463L-8 295.736V365.5H833V121.255L816.415 78.9231C815.631 76.922 813.406 75.8981 811.376 76.6046L780.908 87.2089C779.727 87.6203 778.805 88.5609 778.419 89.751L744.391 194.515C744.17 195.196 743.77 195.806 743.233 196.279L708.575 226.839C708.244 227.13 707.964 227.475 707.745 227.858L691.514 256.331C689.99 259.004 686.144 259.027 684.588 256.372L673.096 236.763L641.473 179.131C639.987 176.422 636.121 176.35 634.534 179.001L602.695 232.193C602.331 232.802 601.811 233.303 601.188 233.645L568.059 251.831C567.469 252.155 566.807 252.324 566.134 252.324H533.014C531.573 252.324 530.243 253.1 529.533 254.355L496.835 312.149C496.423 312.876 495.795 313.456 495.037 313.808L462.182 329.055C460.96 329.622 459.534 329.536 458.389 328.826L426.144 308.816C425.554 308.45 425.071 307.938 424.739 307.329L407.431 275.521C406.278 273.402 403.526 272.779 401.572 274.193L395.16 278.835C392.839 280.515 389.556 279.282 388.916 276.489L356.745 136.148C355.91 132.507 350.983 131.896 349.284 135.222L321.054 190.469C320.078 192.379 317.771 193.179 315.822 192.284L300.759 185.364C299.835 184.939 299.107 184.178 298.724 183.236L281.707 141.38C281.46 140.774 281.068 140.237 280.566 139.817L266.152 127.777C264.562 126.448 262.22 126.554 260.756 128.022L252.748 136.049C250.691 138.111 247.19 137.353 246.17 134.626L228.666 87.8377C228.466 87.3034 228.154 86.8181 227.752 86.4142L218.744 77.3847C216.469 75.1043 212.569 76.3108 211.979 79.4774L192.385 184.703L178.947 246.814C178.277 249.911 174.443 251.037 172.205 248.793L162.366 238.931C160.177 236.736 156.43 237.759 155.66 240.762L144.646 283.697C143.786 287.051 139.359 287.802 137.441 284.918L124.742 265.824C123.48 263.926 120.891 263.465 119.051 264.81L106.967 273.642C106.616 273.899 106.308 274.212 106.057 274.568L86.7668 301.962C86.5553 302.262 86.3863 302.59 86.2643 302.936L72.1714 342.962C71.7254 344.229 70.6735 345.187 69.3708 345.514L53.0376 349.607C52.1228 349.836 51.1721 349.395 50.7563 348.549L37.5905 321.741C36.4907 319.502 33.6317 318.805 31.6245 320.287L17.5714 330.661C15.6589 332.072 12.9446 331.515 11.7437 329.463Z" fill="url(#paint0_linear_1_31858)" stroke="#1AEFAF"/>
</g>
<defs>
<linearGradient id="paint0_linear_1_31858" x1="416.5" y1="72" x2="416.5" y2="365.5" gradientUnits="userSpaceOnUse">
<stop stop-color="#53F3C3" stop-opacity="0.6"/>
<stop offset="1" stop-color="#53F3C3" stop-opacity="0"/>
</linearGradient>
<clipPath id="clip0_1_31858">
<rect width="830" height="362" rx="16" fill="white"/>
</clipPath>
</defs>
</svg>
