<svg width="40" height="40" viewBox="0 0 40 40" fill="none" xmlns="http://www.w3.org/2000/svg">
<path d="M19.9999 3.33325C29.2055 3.33325 36.6666 10.7958 36.6666 19.9999C36.6666 29.2055 29.2055 36.6666 19.9999 36.6666C10.7958 36.6666 3.33325 29.2048 3.33325 19.9999C3.33325 10.7958 10.7958 3.33325 19.9999 3.33325Z" fill="#F5AC37"/>
<path d="M20.6136 21.1768H26.9467C27.0817 21.1768 27.1454 21.1768 27.1552 20.9998C27.2069 20.3556 27.2069 19.7076 27.1552 19.0625C27.1552 18.9373 27.0929 18.8855 26.9572 18.8855H14.3533C14.1973 18.8855 14.1553 18.9373 14.1553 19.0835V20.9376C14.1553 21.1768 14.1553 21.1768 14.4051 21.1768H20.6136ZM26.4479 16.7188C26.4659 16.6715 26.4659 16.6198 26.4479 16.5733C26.3422 16.343 26.2169 16.1233 26.0714 15.917C25.8524 15.5645 25.5944 15.2398 25.3004 14.948C25.1617 14.7718 25.0012 14.6135 24.8212 14.4793C23.9197 13.712 22.8479 13.169 21.6959 12.896C21.1146 12.7655 20.5206 12.7032 19.9251 12.7085H14.3316C14.1756 12.7085 14.1546 12.7707 14.1546 12.9065V16.604C14.1546 16.76 14.1546 16.802 14.3526 16.802H26.3729C26.3729 16.802 26.4772 16.781 26.4982 16.7188H26.4472H26.4479ZM26.4479 23.3436C26.2709 23.3241 26.0924 23.3241 25.9154 23.3436H14.3638C14.2078 23.3436 14.1553 23.3436 14.1553 23.5521V27.1671C14.1553 27.3336 14.1553 27.3756 14.3638 27.3756H19.6971C19.9521 27.3951 20.2071 27.3771 20.4569 27.3239C21.2309 27.2684 21.9921 27.1004 22.7181 26.8236C22.9821 26.7321 23.2371 26.6129 23.4779 26.4696H23.5507C24.8009 25.8194 25.8164 24.7979 26.4569 23.5438C26.4569 23.5438 26.5297 23.3863 26.4479 23.3451V23.3436ZM12.062 29.2499V29.1877V26.7606V25.9379V23.4898C12.062 23.3541 12.062 23.3338 11.8955 23.3338H9.63501C9.50976 23.3338 9.45801 23.3338 9.45801 23.1673V21.1881H11.8745C12.0095 21.1881 12.062 21.1881 12.062 21.0111V19.0528C12.062 18.9275 12.062 18.8968 11.8955 18.8968H9.63501C9.50976 18.8968 9.45801 18.8968 9.45801 18.7303V16.8973C9.45801 16.7825 9.45801 16.7518 9.62451 16.7518H11.864C12.02 16.7518 12.062 16.7518 12.062 16.5538V10.9392C12.062 10.7727 12.062 10.7307 12.2705 10.7307H20.0826C20.6496 10.7532 21.2129 10.8155 21.7701 10.9182C22.9184 11.1305 24.0217 11.5407 25.0304 12.1265C25.6994 12.5202 26.3152 12.9957 26.8634 13.5432C27.2759 13.9715 27.6479 14.435 27.9779 14.9285C28.3057 15.4288 28.578 15.9635 28.7917 16.5223C28.818 16.6678 28.9575 16.766 29.103 16.7413H30.9675C31.2067 16.7413 31.2067 16.7413 31.2172 16.9708V18.6793C31.2172 18.8458 31.155 18.8878 30.9877 18.8878H29.55C29.4045 18.8878 29.3625 18.8878 29.373 19.0753C29.43 19.7098 29.43 20.3466 29.373 20.9811C29.373 21.1581 29.373 21.1791 29.5717 21.1791H31.2165C31.2892 21.2728 31.2165 21.3666 31.2165 21.4611C31.227 21.5818 31.227 21.7041 31.2165 21.8248V23.0856C31.2165 23.2626 31.1647 23.3151 31.008 23.3151H29.0392C28.902 23.2888 28.7685 23.3766 28.737 23.5131C28.2682 24.7319 27.5182 25.8246 26.5492 26.7006C26.1952 27.0194 25.8232 27.3194 25.4347 27.5961C25.0177 27.8361 24.6119 28.0859 24.1844 28.2839C23.3976 28.6379 22.5726 28.8989 21.7259 29.0646C20.9219 29.2086 20.1066 29.2739 19.2884 29.2627H12.059V29.2521L12.062 29.2499Z" fill="#FEFEFD"/>
</svg>
