<svg width="40" height="40" viewBox="0 0 40 40" fill="none" xmlns="http://www.w3.org/2000/svg">
<path d="M36.6666 19.9999C36.6666 29.2049 29.2049 36.6666 19.9999 36.6666C10.7953 36.6666 3.33325 29.2049 3.33325 19.9999C3.33325 10.7951 10.7953 3.33325 19.9999 3.33325C29.2049 3.33325 36.6666 10.7951 36.6666 19.9999Z" fill="#1BA27A"/>
<path d="M27.8222 11.7375H12.0405V15.5475H18.0264V21.1475H21.8364V15.5475H27.8222V11.7375Z" fill="white"/>
<path d="M19.9673 21.7442C15.0157 21.7442 11.0012 20.9605 11.0012 19.9937C11.0012 19.027 15.0155 18.2432 19.9673 18.2432C24.919 18.2432 28.9333 19.027 28.9333 19.9937C28.9333 20.9605 24.919 21.7442 19.9673 21.7442ZM30.0348 20.2855C30.0348 19.0388 25.5275 18.0283 19.9673 18.0283C14.4073 18.0283 9.89966 19.0388 9.89966 20.2855C9.89966 21.3833 13.3948 22.298 18.0263 22.5007V30.5397H21.836V22.5038C26.5032 22.3075 30.0348 21.389 30.0348 20.2855Z" fill="white"/>
</svg>
